<svg width="83" height="23" viewBox="0 0 83 23" fill="none" xmlns="http://www.w3.org/2000/svg">
<path d="M7.419 18.1722C5.75755 18.1722 4.33344 17.796 3.14669 17.0436C1.97688 16.2912 1.15463 15.2607 0.679932 13.9522L2.71437 12.8236C3.40947 14.9009 4.99463 15.9395 7.46986 15.9395C8.69053 15.9395 9.62298 15.7023 10.2672 15.228C10.9115 14.7373 11.2336 14.0913 11.2336 13.2898C11.2336 12.472 10.9115 11.8586 10.2672 11.4497C9.62298 11.0408 8.54642 10.6074 7.03755 10.1494C6.29159 9.92039 5.72364 9.74047 5.33371 9.60961C4.94377 9.46241 4.45212 9.24978 3.85874 8.97172C3.28232 8.6773 2.85 8.38289 2.56179 8.08848C2.27357 7.77771 2.01079 7.37698 1.77344 6.88629C1.55304 6.3956 1.44285 5.83948 1.44285 5.21794C1.44285 3.72951 1.98536 2.55186 3.07039 1.68497C4.15543 0.801729 5.47781 0.360107 7.03755 0.360107C8.4447 0.360107 9.66536 0.703591 10.6995 1.39056C11.7507 2.07752 12.539 2.9853 13.0646 4.11389L11.081 5.21794C10.3181 3.45146 8.97026 2.56821 7.03755 2.56821C6.07119 2.56821 5.29132 2.7972 4.69794 3.25518C4.10457 3.71316 3.80788 4.3347 3.80788 5.1198C3.80788 5.87219 4.08761 6.44466 4.64708 6.83722C5.20655 7.22977 6.17291 7.63868 7.54616 8.06394C8.03781 8.21115 8.38536 8.31746 8.5888 8.38289C8.79225 8.44832 9.10589 8.56281 9.52973 8.72637C9.97053 8.88994 10.2926 9.02079 10.4961 9.11892C10.6995 9.21706 10.9708 9.35609 11.3099 9.53601C11.6659 9.71593 11.9287 9.88767 12.0982 10.0512C12.2677 10.2148 12.4627 10.4193 12.6831 10.6646C12.9205 10.8936 13.09 11.1308 13.1917 11.3761C13.2934 11.6214 13.3782 11.9077 13.446 12.2348C13.5308 12.5456 13.5732 12.8809 13.5732 13.2407C13.5732 14.7455 13.0052 15.9477 11.8693 16.8473C10.7334 17.7305 9.25 18.1722 7.419 18.1722Z" fill="white"/>
<path d="M22.477 5.26701C23.9689 5.26701 25.1642 5.72499 26.0627 6.64094C26.9613 7.54054 27.4105 8.76726 27.4105 10.3211V17.8532H25.1981V10.4438C25.1981 9.44605 24.9183 8.6773 24.3589 8.13754C23.7994 7.58143 23.028 7.30337 22.0447 7.30337C20.9427 7.30337 20.0526 7.63868 19.3745 8.30929C18.6964 8.96354 18.3573 9.97763 18.3573 11.3516V17.8532H16.1448V5.58596H18.3573V7.35244C19.2558 5.96215 20.6291 5.26701 22.477 5.26701Z" fill="white"/>
<path d="M31.6181 3.35332C31.1942 3.35332 30.8382 3.21429 30.55 2.93623C30.2618 2.65817 30.1177 2.32287 30.1177 1.93032C30.1177 1.53776 30.2618 1.20246 30.55 0.924401C30.8382 0.629988 31.1942 0.482781 31.6181 0.482781C32.025 0.482781 32.3725 0.629988 32.6607 0.924401C32.9489 1.20246 33.093 1.53776 33.093 1.93032C33.093 2.32287 32.9489 2.65817 32.6607 2.93623C32.3725 3.21429 32.025 3.35332 31.6181 3.35332ZM30.4991 17.8532V5.58596H32.7116V17.8532H30.4991Z" fill="white"/>
<path d="M46.844 17.8532H44.0975L38.2993 12.0385V17.8532H36.0869V0.679056H38.2993V11.0081L43.7923 5.58596H46.6405L40.5626 11.5233L46.844 17.8532Z" fill="white"/>
<path d="M55.9203 5.26701C57.7004 5.26701 59.2177 5.89673 60.4723 7.15616C61.7269 8.39925 62.3542 9.92039 62.3542 11.7196C62.3542 13.5188 61.7269 15.0481 60.4723 16.3075C59.2177 17.5506 57.7004 18.1722 55.9203 18.1722C53.818 18.1722 52.2159 17.3625 51.1139 15.7432V22.7601H48.9014V5.58596H51.1139V7.69592C52.2159 6.07665 53.818 5.26701 55.9203 5.26701ZM55.6405 16.1113C56.912 16.1113 57.9801 15.6942 58.8448 14.86C59.7094 14.0095 60.1417 12.9627 60.1417 11.7196C60.1417 10.4765 59.7094 9.43787 58.8448 8.6037C57.9801 7.75317 56.912 7.32791 55.6405 7.32791C54.352 7.32791 53.2755 7.75317 52.4108 8.6037C51.5462 9.43787 51.1139 10.4765 51.1139 11.7196C51.1139 12.9627 51.5462 14.0095 52.4108 14.86C53.2755 15.6942 54.352 16.1113 55.6405 16.1113Z" fill="white"/>
<path d="M66.1131 3.35332C65.6893 3.35332 65.3332 3.21429 65.045 2.93623C64.7568 2.65817 64.6127 2.32287 64.6127 1.93032C64.6127 1.53776 64.7568 1.20246 65.045 0.924401C65.3332 0.629988 65.6893 0.482781 66.1131 0.482781C66.52 0.482781 66.8675 0.629988 67.1557 0.924401C67.444 1.20246 67.5881 1.53776 67.5881 1.93032C67.5881 2.32287 67.444 2.65817 67.1557 2.93623C66.8675 3.21429 66.52 3.35332 66.1131 3.35332ZM64.9942 17.8532V5.58596H67.2066V17.8532H64.9942Z" fill="white"/>
<path d="M76.5581 18.1722C74.6423 18.1722 73.0487 17.5588 71.7771 16.3321C70.5056 15.089 69.8698 13.5515 69.8698 11.7196C69.8698 9.88767 70.5056 8.35836 71.7771 7.13163C73.0487 5.88855 74.6423 5.26701 76.5581 5.26701C77.8126 5.26701 78.94 5.56142 79.9403 6.15025C80.9406 6.72272 81.6865 7.49965 82.1782 8.48103L80.3218 9.51148C79.9997 8.85722 79.4995 8.33382 78.8214 7.94127C78.1602 7.54872 77.4057 7.35244 76.5581 7.35244C75.2865 7.35244 74.2185 7.76953 73.3538 8.6037C72.5061 9.43787 72.0823 10.4765 72.0823 11.7196C72.0823 12.9463 72.5061 13.9768 73.3538 14.8109C74.2185 15.6451 75.2865 16.0622 76.5581 16.0622C77.4057 16.0622 78.1687 15.8741 78.8468 15.4979C79.5249 15.1053 80.042 14.5819 80.3981 13.9277L82.2799 14.9827C81.7374 15.9477 80.9575 16.7246 79.9403 17.3134C78.9231 17.8859 77.7957 18.1722 76.5581 18.1722Z" fill="white"/>
</svg>
